<svg xmlns="http://www.w3.org/2000/svg" viewBox="0 0 891.25 588.63"><defs><style>.cls-1{fill:#0b50f2;}</style></defs><g id="Layer_2" data-name="Layer 2"><g id="Layer_1-2" data-name="Layer 1"><path class="cls-1" d="M662.46,40.87l-.67-4.6-4.4-1.54C591.38,11.68,520.28,0,446.09,0S300.8,11.68,234.79,34.73l-4.41,1.54-.66,4.6c-.39,2.68-9.21,66.48,12.42,147.35,20,74.73,71,178.2,200.34,246.81l3.61,1.91,3.6-1.91C579.05,366.42,630,263,650,188.22,671.66,107.35,662.84,43.55,662.46,40.87Zm-13.81,59.35q-.55,10.05-1.6,20-1.15,11.12-2.91,22.15-1.9,12-4.52,23.9-1.36,6.27-3,12.5-1.11,4.43-2.34,8.84-3.47,12.5-7.77,24.73A373.15,373.15,0,0,1,603,265.63q-7.62,14.13-16.46,27.55-9.37,14.22-20.06,27.53-11.34,14.12-24,27.06a377,377,0,0,1-28.07,25.85q-15.28,12.72-31.77,23.85c-11.8,8-24,15.36-36.54,22.14q-18.79-10.17-36.54-22.14a396.37,396.37,0,0,1-31.77-23.85,375.22,375.22,0,0,1-28.08-25.85q-11.83-12.07-22.54-25.19l2.14-2c18.95-17.07,35.88-29.91,44.19-34.2a3.36,3.36,0,0,1,1.06-.19,3.15,3.15,0,0,1,1.11.17,3.31,3.31,0,0,1,1.52,1.06c6,9.92,23.3,21,48.63,31.16,8.25,3.29,16.95,13.45,25.37,23.3,6,7,13.44,15.66,16.65,15.84h0c9.7.26,35.05-5.71,38.29-11.88A85.06,85.06,0,0,0,509.8,336c2.66-7.82,4.49-12.61,6.48-14.82l.18-.22.21-.19c.83-.76,2.18-2,3.92-3.49a48.63,48.63,0,0,0,6.71-6.43c1-1.15,3.21-4.13,3.7-6.31a52.44,52.44,0,0,1-8,4c-6.49,2.47-14.56,3.21-19.32,3.31a29.19,29.19,0,0,1-7.69-.66,32.56,32.56,0,0,1-17.93-11.09c-15.27-18.07-13.22-48.05-3.55-62.65a103.3,103.3,0,0,1,14.15-17.08c8.24-8,13.8-10.61,16.07-11.59a40.93,40.93,0,0,1,6-2,44.57,44.57,0,0,1,12.81-1.18A63,63,0,0,1,547.75,211a35,35,0,0,1,12.33,8.38c8.85,8.74,4.56,27.74,3.62,30.35A46.67,46.67,0,0,0,577.25,227l.65-3a11.62,11.62,0,0,1,2.91.89,8.87,8.87,0,0,0,3.45,1,3.12,3.12,0,0,0,2.15-.63c.37-.28.71-.55,1-.85s.58-.51,1-.94a13.46,13.46,0,0,0,1.15-1.34c.68-.89,2.1-3.25,2.53-4,.14-.23,1.07-1.75,1.55-2.55,2.23-4,3.21-5.13,4.08-5.78,9.39-6.69,8.78-19.65,8.42-27.42-.19-3.49-.26-5.4.51-6.81.07-.14,1.1-2.14.09-3.7a2.83,2.83,0,0,0-.9-.87,406.71,406.71,0,0,1-36.8-21.21C555,140.7,547.25,134.41,540.36,125a79.86,79.86,0,0,1-5.58-8.74s-1.72-2.51-3.52-4.79C520.47,97.78,462.52,82,462.52,82c-3.92-1.08-9-2.45-15-4-27.82-6.87-55.72-11.69-63-12.44-4-.41-7.19-1-9.2-1.33-10.09-1.9-27.94-5.27-38.52-12.14-1.36-.89-5.9-4-8.28-2.41a2.75,2.75,0,0,0-.91,1.07,12.25,12.25,0,0,0-.4,1.4c-.17.76-.29,1.5-.39,2.23a35.66,35.66,0,0,0-.16,6.2,48.74,48.74,0,0,0,1.88,9.18c2.65,8.7,7.11,14.59,10.16,18.57a74.93,74.93,0,0,0,7.4,8.24c-2.75,1.44-9.13,4.79-14.69,7.26a200.21,200.21,0,0,1-72.13,17.64c-3,.14-8.44,0-14.06-.22q-1.12-10.44-1.7-20.94-.68-12.15-.6-24.32,0-6.77.34-13.51c.14-2.9.31-5.81.53-8.71.15-2,.32-4,.53-6.06,63-21.43,130.86-32.33,201.77-32.33s138.73,10.9,201.76,32.33q.31,3,.54,6.06c.22,2.9.39,5.81.52,8.71q.3,6.75.35,13.51Q649.33,88.07,648.65,100.22ZM490.11,127.81c7.69.81,20.81,3.58,29.87,8.32,1.08.6,2.11,1.23,3.09,1.87.33,1.42.64,2.92.89,4.49a65.29,65.29,0,0,1,.61,11.68c-3.54-3.23-8.6-7.55-12.84-10.88A239.92,239.92,0,0,0,490.11,127.81Z"/><path class="cls-1" d="M18.28,569.64h9.5a51.05,51.05,0,0,0,11.78-1.29A25.25,25.25,0,0,0,49,564.07a20.44,20.44,0,0,0,6.27-7.85,27.79,27.79,0,0,0,2.29-11.9,23.14,23.14,0,0,0-2.29-10.61,21.09,21.09,0,0,0-6.15-7.44A26.92,26.92,0,0,0,40,521.88a40.23,40.23,0,0,0-11-1.47H18.28ZM0,503.53H27.43a78,78,0,0,1,18.93,2.23A43.4,43.4,0,0,1,62,513a35.33,35.33,0,0,1,10.61,13q3.93,8,3.93,19.34A39.4,39.4,0,0,1,72.73,563a38.21,38.21,0,0,1-10.26,12.9,45.58,45.58,0,0,1-14.88,7.91,57.76,57.76,0,0,1-17.7,2.69H0Z"/><polygon class="cls-1" points="90.13 503.53 114.98 503.53 150.26 561.2 150.5 561.2 150.5 503.53 168.78 503.53 168.78 586.51 144.87 586.51 108.65 527.44 108.42 527.44 108.42 586.51 90.13 586.51 90.13 503.53"/><path class="cls-1" d="M259.62,523.81a13.12,13.12,0,0,0-6-4.17,21.83,21.83,0,0,0-7.21-1.34,18.43,18.43,0,0,0-4.1.47,15.55,15.55,0,0,0-4,1.46,8.79,8.79,0,0,0-3,2.64,7.31,7.31,0,0,0,1.64,9.73A26.6,26.6,0,0,0,244,536q4.28,1.39,9.2,2.81a38.33,38.33,0,0,1,9.2,4,21.91,21.91,0,0,1,7.1,6.92q2.8,4.34,2.81,11.6a26.81,26.81,0,0,1-2.58,12.08,24.56,24.56,0,0,1-7,8.56,29.8,29.8,0,0,1-10.2,5,46.79,46.79,0,0,1-27.25-.82,37.69,37.69,0,0,1-12.89-8l13-14.3a19.09,19.09,0,0,0,7.09,5.81,19.9,19.9,0,0,0,13.36,1.52,14.42,14.42,0,0,0,4.11-1.59,8.83,8.83,0,0,0,2.93-2.69,6.72,6.72,0,0,0,1.11-3.87,7,7,0,0,0-2.87-5.91,26.58,26.58,0,0,0-7.21-3.7q-4.33-1.51-9.38-3.05a41.72,41.72,0,0,1-9.37-4.1,22.41,22.41,0,0,1-7.21-6.8q-2.88-4.21-2.87-11.13a24.91,24.91,0,0,1,2.64-11.72,25.37,25.37,0,0,1,7-8.44,30.44,30.44,0,0,1,10.14-5.1,41.52,41.52,0,0,1,11.83-1.7,46.48,46.48,0,0,1,13.6,2,31.46,31.46,0,0,1,11.84,6.68Z"/><path class="cls-1" d="M301.57,545a30.47,30.47,0,0,0,1.82,10.73,24.59,24.59,0,0,0,5.22,8.44,23.62,23.62,0,0,0,8.15,5.56,29.25,29.25,0,0,0,21.21,0,23.58,23.58,0,0,0,8.14-5.56,24.59,24.59,0,0,0,5.22-8.44,32.33,32.33,0,0,0,0-21.39,24.39,24.39,0,0,0-5.22-8.5,23.75,23.75,0,0,0-8.14-5.57,29.25,29.25,0,0,0-21.21,0,23.79,23.79,0,0,0-8.15,5.57,24.39,24.39,0,0,0-5.22,8.5A30.59,30.59,0,0,0,301.57,545m-19,0a46.81,46.81,0,0,1,3.34-18,39.58,39.58,0,0,1,9.32-13.77,41,41,0,0,1,14.18-8.73,54.23,54.23,0,0,1,35.86,0,41.09,41.09,0,0,1,14.19,8.73A39.71,39.71,0,0,1,368.8,527a50.58,50.58,0,0,1,0,36.1,39.62,39.62,0,0,1-9.32,13.77,41.12,41.12,0,0,1-14.19,8.74,54.4,54.4,0,0,1-35.86,0,41,41,0,0,1-14.18-8.74,39.48,39.48,0,0,1-9.32-13.77A46.78,46.78,0,0,1,282.59,545"/><polygon class="cls-1" points="386.43 503.53 404.72 503.53 404.72 569.63 438.59 569.63 438.59 586.51 386.43 586.51 386.43 503.53"/><path class="cls-1" d="M519.82,554.52a40.11,40.11,0,0,1-2.23,13.59A30,30,0,0,1,511,578.9,30.35,30.35,0,0,1,500,586a45.95,45.95,0,0,1-30.36,0,30.26,30.26,0,0,1-11-7.14,29.83,29.83,0,0,1-6.62-10.79,39.86,39.86,0,0,1-2.23-13.59v-51h18.29v50.28a20.18,20.18,0,0,0,1.23,7.15,17.12,17.12,0,0,0,3.45,5.69,15.83,15.83,0,0,0,5.34,3.75,16.69,16.69,0,0,0,6.74,1.34,16.34,16.34,0,0,0,6.68-1.34,15.85,15.85,0,0,0,5.27-3.75A17,17,0,0,0,500.3,561a20.18,20.18,0,0,0,1.23-7.15V503.53h18.29Z"/><polygon class="cls-1" points="553.92 519.71 530.25 519.71 530.25 503.53 595.88 503.53 595.88 519.71 572.21 519.71 572.21 586.51 553.92 586.51 553.92 519.71"/><rect class="cls-1" x="606.08" y="503.53" width="18.29" height="82.98"/><path class="cls-1" d="M656.71,545a30.47,30.47,0,0,0,1.82,10.73,24.59,24.59,0,0,0,5.22,8.44,23.68,23.68,0,0,0,8.14,5.56,29.28,29.28,0,0,0,21.22,0,23.91,23.91,0,0,0,8.15-5.56,24.87,24.87,0,0,0,5.21-8.44,32.33,32.33,0,0,0,0-21.39,24.66,24.66,0,0,0-5.21-8.5,24.08,24.08,0,0,0-8.15-5.57,29.28,29.28,0,0,0-21.22,0,23.84,23.84,0,0,0-8.14,5.57,24.39,24.39,0,0,0-5.22,8.5A30.59,30.59,0,0,0,656.71,545m-19,0a46.81,46.81,0,0,1,3.35-18,39.55,39.55,0,0,1,9.31-13.77,41,41,0,0,1,14.19-8.73,54.26,54.26,0,0,1,35.87,0,41.14,41.14,0,0,1,14.18,8.73A39.71,39.71,0,0,1,723.94,527a50.44,50.44,0,0,1,0,36.1,39.62,39.62,0,0,1-9.32,13.77,41.17,41.17,0,0,1-14.18,8.74,54.43,54.43,0,0,1-35.87,0,41,41,0,0,1-14.19-8.74,39.46,39.46,0,0,1-9.31-13.77A46.78,46.78,0,0,1,637.72,545"/><polygon class="cls-1" points="740.87 503.53 765.72 503.53 801 561.2 801.23 561.2 801.23 503.53 819.52 503.53 819.52 586.51 795.6 586.51 759.39 527.44 759.15 527.44 759.15 586.51 740.87 586.51 740.87 503.53"/><path class="cls-1" d="M878.59,523.81a13.12,13.12,0,0,0-6-4.17,21.83,21.83,0,0,0-7.21-1.34,18.43,18.43,0,0,0-4.1.47,15.68,15.68,0,0,0-4,1.46,8.79,8.79,0,0,0-3,2.64,7.31,7.31,0,0,0,1.64,9.73,26.6,26.6,0,0,0,7.09,3.4q4.27,1.39,9.2,2.81a38.33,38.33,0,0,1,9.2,4,21.91,21.91,0,0,1,7.1,6.92q2.8,4.34,2.81,11.6a26.81,26.81,0,0,1-2.58,12.08,24.56,24.56,0,0,1-7,8.56,29.84,29.84,0,0,1-10.19,5,45.07,45.07,0,0,1-12.25,1.64,44.5,44.5,0,0,1-15-2.46,37.59,37.59,0,0,1-12.89-8l13-14.3a19.09,19.09,0,0,0,7.09,5.81,19.9,19.9,0,0,0,13.36,1.52,14.42,14.42,0,0,0,4.11-1.59,8.7,8.7,0,0,0,2.92-2.69,6.66,6.66,0,0,0,1.12-3.87,7,7,0,0,0-2.87-5.91,26.58,26.58,0,0,0-7.21-3.7q-4.33-1.51-9.38-3.05a41.92,41.92,0,0,1-9.37-4.1,22.51,22.51,0,0,1-7.21-6.8q-2.88-4.21-2.87-11.13a25,25,0,0,1,2.63-11.72,25.52,25.52,0,0,1,7-8.44,30.44,30.44,0,0,1,10.14-5.1,41.54,41.54,0,0,1,11.84-1.7,46.46,46.46,0,0,1,13.59,2,31.46,31.46,0,0,1,11.84,6.68Z"/></g></g></svg>