<svg width="28" height="28" viewBox="0 0 28 28" fill="none" xmlns="http://www.w3.org/2000/svg">
<path d="M26.8335 10.2083H22.1668V8.45833H26.8335V10.2083ZM26.3901 5.09833L25.6668 3.5L21.4435 5.40167L22.1668 7L26.3901 5.09833ZM22.1668 11.6667L21.4435 13.265L25.6668 15.1667L26.3901 13.5683L22.1668 11.6667ZM12.8335 15.1667C13.4751 15.1667 14.0001 15.6917 14.0001 16.3333V18.6667C14.0001 19.3083 13.4751 19.8333 12.8335 19.8333H11.2468L10.3835 23.0767C10.1834 23.8206 9.74328 24.4778 9.13153 24.9461C8.51978 25.4144 7.77057 25.6677 7.00015 25.6667C6.46351 25.6679 5.9338 25.5456 5.45209 25.3091C4.97037 25.0726 4.5496 24.7283 4.22241 24.3029C3.89522 23.8776 3.67039 23.3826 3.56537 22.8563C3.46035 22.3301 3.47795 21.7867 3.61682 21.2683L5.74015 13.335C5.05606 12.9149 4.49101 12.3265 4.09888 11.626C3.70675 10.9254 3.50062 10.1361 3.50015 9.33333C3.50015 6.755 5.58848 4.66667 8.16682 4.66667H17.5001C19.2385 4.66667 20.3585 6.48667 19.5885 8.03833L17.2551 12.705C16.8585 13.4983 16.0418 14 15.1668 14H12.8101L12.4951 15.1667H12.8335Z" fill="#165EF3"/>
</svg>
