<svg width="20" height="20" viewBox="0 0 20 20" fill="none" xmlns="http://www.w3.org/2000/svg">
<path fill-rule="evenodd" clip-rule="evenodd" d="M16.6667 2.5H3.33341C2.41675 2.5 1.66675 3.25 1.66675 4.16667V15.8333C1.66675 16.75 2.41675 17.5 3.33341 17.5H16.6667C17.5834 17.5 18.3334 16.75 18.3334 15.8333V4.16667C18.3334 3.25 17.5834 2.5 16.6667 2.5ZM8.33341 14.1667H4.16675V12.5H8.33341V14.1667ZM8.33341 10.8333H4.16675V9.16667H8.33341V10.8333ZM8.33341 7.5H4.16675V5.83333H8.33341V7.5ZM12.3501 12.5L10.0001 10.1333L11.1751 8.95833L12.3501 10.1417L14.9917 7.5L16.1751 8.68333L12.3501 12.5Z" fill="#223957"/>
</svg>
