<svg width="28" height="28" viewBox="0 0 28 28" fill="none" xmlns="http://www.w3.org/2000/svg">
<path d="M8.16675 21C6.88342 21 5.84508 22.05 5.84508 23.3334C5.84508 24.6167 6.88342 25.6667 8.16675 25.6667C9.45008 25.6667 10.5001 24.6167 10.5001 23.3334C10.5001 22.05 9.45008 21 8.16675 21ZM1.16675 2.33337V4.66671H3.50008L7.70008 13.5217L6.12508 16.38C5.93842 16.7067 5.83342 17.0917 5.83342 17.5C5.83342 18.7834 6.88342 19.8334 8.16675 19.8334H22.1667V17.5H8.65675C8.49342 17.5 8.36508 17.3717 8.36508 17.2084L8.40008 17.0684L9.45008 15.1667H18.1417C19.0167 15.1667 19.7867 14.6884 20.1834 13.965L24.3601 6.39337C24.4534 6.23004 24.5001 6.03171 24.5001 5.83337C24.5001 5.19171 23.9751 4.66671 23.3334 4.66671H6.07842L4.98175 2.33337H1.16675ZM19.8334 21C18.5501 21 17.5117 22.05 17.5117 23.3334C17.5117 24.6167 18.5501 25.6667 19.8334 25.6667C21.1167 25.6667 22.1667 24.6167 22.1667 23.3334C22.1667 22.05 21.1167 21 19.8334 21Z" fill="#165EF3"/>
</svg>
