<svg width="40" height="40" viewBox="0 0 40 40" fill="none" xmlns="http://www.w3.org/2000/svg">
<path d="M19.9998 13.3333C21.8332 13.3333 23.3332 11.8333 23.3332 10C23.3332 8.16667 21.8332 6.66667 19.9998 6.66667C18.1665 6.66667 16.6665 8.16667 16.6665 10C16.6665 11.8333 18.1665 13.3333 19.9998 13.3333ZM19.9998 16.6667C18.1665 16.6667 16.6665 18.1667 16.6665 20C16.6665 21.8333 18.1665 23.3333 19.9998 23.3333C21.8332 23.3333 23.3332 21.8333 23.3332 20C23.3332 18.1667 21.8332 16.6667 19.9998 16.6667ZM19.9998 26.6667C18.1665 26.6667 16.6665 28.1667 16.6665 30C16.6665 31.8333 18.1665 33.3333 19.9998 33.3333C21.8332 33.3333 23.3332 31.8333 23.3332 30C23.3332 28.1667 21.8332 26.6667 19.9998 26.6667Z" fill="white"/>
</svg>
