<svg width="24" height="24" viewBox="0 0 24 24" fill="none" xmlns="http://www.w3.org/2000/svg">
<path d="M12 21C9.4875 21 7.35938 20.1281 5.61562 18.3844C3.87187 16.6406 3 14.5125 3 12C3 9.4875 3.87187 7.35938 5.61562 5.61562C7.35938 3.87187 9.4875 3 12 3C13.2937 3 14.5312 3.26719 15.7125 3.80156C16.8937 4.33594 17.9062 5.1 18.75 6.09375V3H21V10.875H13.125V8.625H17.85C17.25 7.575 16.4297 6.75 15.3891 6.15C14.3484 5.55 13.2188 5.25 12 5.25C10.125 5.25 8.53125 5.90625 7.21875 7.21875C5.90625 8.53125 5.25 10.125 5.25 12C5.25 13.875 5.90625 15.4688 7.21875 16.7812C8.53125 18.0938 10.125 18.75 12 18.75C13.4437 18.75 14.7469 18.3375 15.9094 17.5125C17.0719 16.6875 17.8875 15.6 18.3562 14.25H20.7188C20.1938 16.2375 19.125 17.8594 17.5125 19.1156C15.9 20.3719 14.0625 21 12 21Z" fill="#165EF3"/>
</svg>
