<svg width="40" height="40" viewBox="0 0 40 40" fill="none" xmlns="http://www.w3.org/2000/svg">
<path fill-rule="evenodd" clip-rule="evenodd" d="M15.3059 12.1231L16.4534 13.2964C14.8164 14.4862 13.7252 16.3897 13.6048 18.5641H12C12.1123 15.9385 13.3801 13.6246 15.3059 12.1231ZM28 18.5641H26.3952C26.2748 16.3897 25.1755 14.4862 23.5547 13.2964L24.6941 12.1231C26.6118 13.6246 27.8796 15.9385 28 18.5641ZM21.2036 13.7887C23.4985 14.3467 24.8144 16.4554 24.8144 18.9744V22.4004C24.8096 22.4004 24.8047 22.4004 24.7998 22.4004C22.8866 22.4004 21.2871 23.7436 20.8929 25.5385H13.5807V24.7179L15.1856 23.0769V18.9744C15.1856 16.4472 16.4935 14.3467 18.7964 13.7887V13.2308C18.7964 12.5497 19.334 12 20 12C20.666 12 21.2036 12.5497 21.2036 13.2308V13.7887ZM20.8 26.359H18.3872C18.3952 27.2615 19.1093 28 20 28C20.1123 28 20.2167 27.9918 20.321 27.9672C20.573 27.9117 20.8025 27.7987 20.996 27.6412C20.8686 27.2506 20.7998 26.8335 20.7998 26.4004C20.7998 26.3866 20.7999 26.3728 20.8 26.359Z" fill="#7C848C"/>
<circle cx="24.8004" cy="26.4" r="2.4" fill="#FF4926"/>
</svg>
