<svg width="28" height="28" viewBox="0 0 28 28" fill="none" xmlns="http://www.w3.org/2000/svg">
<path d="M22.5167 10.3834L26.25 14.1167L24.6167 15.75L20.8834 12.0167C20.475 12.25 20.0375 12.4445 19.5709 12.6C19.1042 12.7556 18.6084 12.8334 18.0834 12.8334C16.625 12.8334 15.3855 12.323 14.3646 11.3021C13.3438 10.2813 12.8334 9.04171 12.8334 7.58337C12.8334 6.12504 13.3438 4.88546 14.3646 3.86462C15.3855 2.84379 16.625 2.33337 18.0834 2.33337C19.5417 2.33337 20.7813 2.84379 21.8021 3.86462C22.823 4.88546 23.3334 6.12504 23.3334 7.58337C23.3334 8.10837 23.2556 8.60421 23.1 9.07087C22.9445 9.53754 22.75 9.97504 22.5167 10.3834ZM18.0834 10.5C18.9 10.5 19.5903 10.2181 20.1542 9.65421C20.7181 9.09032 21 8.40004 21 7.58337C21 6.76671 20.7181 6.07643 20.1542 5.51254C19.5903 4.94865 18.9 4.66671 18.0834 4.66671C17.2667 4.66671 16.5764 4.94865 16.0125 5.51254C15.4487 6.07643 15.1667 6.76671 15.1667 7.58337C15.1667 8.40004 15.4487 9.09032 16.0125 9.65421C16.5764 10.2181 17.2667 10.5 18.0834 10.5ZM4.66671 25.6667C4.02504 25.6667 3.47574 25.4382 3.01879 24.9813C2.56185 24.5243 2.33337 23.975 2.33337 23.3334V7.00004C2.33337 6.35837 2.56185 5.80907 3.01879 5.35212C3.47574 4.89518 4.02504 4.66671 4.66671 4.66671H11.0834C10.8695 5.15282 10.7237 5.65351 10.6459 6.16879C10.5681 6.68407 10.5292 7.19449 10.5292 7.70004C10.5292 9.81949 11.2778 11.5889 12.775 13.0084C14.2723 14.4278 16.0514 15.1375 18.1125 15.1375C18.482 15.1375 18.8514 15.1132 19.2209 15.0646C19.5903 15.016 19.9695 14.9334 20.3584 14.8167L23.3334 17.7917V23.3334C23.3334 23.975 23.1049 24.5243 22.648 24.9813C22.191 25.4382 21.6417 25.6667 21 25.6667H4.66671Z" fill="#165EF3"/>
</svg>
