<svg width="28" height="28" viewBox="0 0 28 28" fill="none" xmlns="http://www.w3.org/2000/svg">
<path d="M19.25 22.1666C20.0667 22.1666 20.7569 21.8847 21.3208 21.3208C21.8847 20.7569 22.1667 20.0666 22.1667 19.25C22.1667 18.4333 21.8847 17.743 21.3208 17.1791C20.7569 16.6153 20.0667 16.3333 19.25 16.3333C18.4333 16.3333 17.7431 16.6153 17.1792 17.1791C16.6153 17.743 16.3333 18.4333 16.3333 19.25C16.3333 20.0666 16.6153 20.7569 17.1792 21.3208C17.7431 21.8847 18.4333 22.1666 19.25 22.1666ZM25.2 26.8333L22.05 23.7125C21.6417 23.9653 21.1993 24.1597 20.7229 24.2958C20.2465 24.4319 19.7556 24.5 19.25 24.5C17.7917 24.5 16.5521 23.9896 15.5312 22.9687C14.5104 21.9479 14 20.7083 14 19.25C14 17.7916 14.5104 16.5521 15.5312 15.5312C16.5521 14.5104 17.7917 14 19.25 14C20.7083 14 21.9479 14.5104 22.9687 15.5312C23.9896 16.5521 24.5 17.7916 24.5 19.25C24.5 19.775 24.4271 20.2757 24.2812 20.7521C24.1354 21.2285 23.9361 21.6708 23.6833 22.0791L26.8333 25.2L25.2 26.8333ZM5.83333 25.6666C5.19167 25.6666 4.64236 25.4382 4.18542 24.9812C3.72847 24.5243 3.5 23.975 3.5 23.3333V4.66665C3.5 4.02498 3.72847 3.47567 4.18542 3.01873C4.64236 2.56179 5.19167 2.33331 5.83333 2.33331H15.1667L22.1667 9.33331V12.25C21.7 12.0555 21.2236 11.9097 20.7375 11.8125C20.2514 11.7153 19.7556 11.6666 19.25 11.6666C18.1611 11.6666 17.1451 11.8708 16.2021 12.2791C15.259 12.6875 14.4472 13.2611 13.7667 14H8.16667V16.3333H12.25C12.0944 16.7028 11.9729 17.0819 11.8854 17.4708C11.7979 17.8597 11.7347 18.2583 11.6958 18.6666H8.16667V21H11.8708C12.0847 21.9722 12.4736 22.8618 13.0375 23.6687C13.6014 24.4757 14.3208 25.1416 15.1958 25.6666H5.83333ZM14 10.5H19.8333L14 4.66665V10.5Z" fill="#165EF3"/>
</svg>
