<svg width="28" height="28" viewBox="0 0 28 28" fill="none" xmlns="http://www.w3.org/2000/svg">
<path d="M25.2 26.8333L22.05 23.6833C21.6222 23.9361 21.175 24.1354 20.7083 24.2812C20.2417 24.427 19.7556 24.5 19.25 24.5C17.7917 24.5 16.5521 23.9895 15.5312 22.9687C14.5104 21.9479 14 20.7083 14 19.25C14 17.7916 14.5104 16.552 15.5312 15.5312C16.5521 14.5104 17.7917 14 19.25 14C20.7083 14 21.9479 14.5104 22.9687 15.5312C23.9896 16.552 24.5 17.7916 24.5 19.25C24.5 19.7555 24.4271 20.2416 24.2812 20.7083C24.1354 21.175 23.9361 21.6222 23.6833 22.05L26.8333 25.2L25.2 26.8333ZM19.25 22.1666C20.0667 22.1666 20.7569 21.8847 21.3208 21.3208C21.8847 20.7569 22.1667 20.0666 22.1667 19.25C22.1667 18.4333 21.8847 17.743 21.3208 17.1791C20.7569 16.6152 20.0667 16.3333 19.25 16.3333C18.4333 16.3333 17.7431 16.6152 17.1792 17.1791C16.6153 17.743 16.3333 18.4333 16.3333 19.25C16.3333 20.0666 16.6153 20.7569 17.1792 21.3208C17.7431 21.8847 18.4333 22.1666 19.25 22.1666ZM24.5 11.6666H22.1667V5.83329H19.8333V9.33329H8.16667V5.83329H5.83333V22.1666H11.6667V24.5H5.83333C5.19167 24.5 4.64236 24.2715 4.18542 23.8145C3.72847 23.3576 3.5 22.8083 3.5 22.1666V5.83329C3.5 5.19163 3.72847 4.64232 4.18542 4.18538C4.64236 3.72843 5.19167 3.49996 5.83333 3.49996H10.7042C10.9181 2.8194 11.3361 2.26038 11.9583 1.82288C12.5806 1.38538 13.2611 1.16663 14 1.16663C14.7778 1.16663 15.4729 1.38538 16.0854 1.82288C16.6979 2.26038 17.1111 2.8194 17.325 3.49996H22.1667C22.8083 3.49996 23.3576 3.72843 23.8146 4.18538C24.2715 4.64232 24.5 5.19163 24.5 5.83329V11.6666ZM14 5.83329C14.3306 5.83329 14.6076 5.72149 14.8312 5.49788C15.0549 5.27426 15.1667 4.99718 15.1667 4.66663C15.1667 4.33607 15.0549 4.05899 14.8312 3.83538C14.6076 3.61176 14.3306 3.49996 14 3.49996C13.6694 3.49996 13.3924 3.61176 13.1687 3.83538C12.9451 4.05899 12.8333 4.33607 12.8333 4.66663C12.8333 4.99718 12.9451 5.27426 13.1687 5.49788C13.3924 5.72149 13.6694 5.83329 14 5.83329Z" fill="#165EF3"/>
</svg>
