<svg width="28" height="28" viewBox="0 0 28 28" fill="none" xmlns="http://www.w3.org/2000/svg">
<path d="M1.22498 24.5V21.2333C1.22498 20.5917 1.39025 19.9889 1.72081 19.425C2.05136 18.8611 2.50831 18.4333 3.09164 18.1417C4.08331 17.6361 5.20136 17.2083 6.44581 16.8583C7.69025 16.5083 9.06109 16.3333 10.5583 16.3333C12.0555 16.3333 13.4264 16.5083 14.6708 16.8583C15.9153 17.2083 17.0333 17.6361 18.025 18.1417C18.6083 18.4333 19.0653 18.8611 19.3958 19.425C19.7264 19.9889 19.8916 20.5917 19.8916 21.2333V24.5H1.22498ZM10.5583 15.1667C9.27497 15.1667 8.17636 14.7097 7.26248 13.7958C6.34859 12.8819 5.89164 11.7833 5.89164 10.5H5.59998C5.42498 10.5 5.284 10.4465 5.17706 10.3396C5.07011 10.2326 5.01664 10.0917 5.01664 9.91667C5.01664 9.74167 5.07011 9.60069 5.17706 9.49375C5.284 9.38681 5.42498 9.33333 5.59998 9.33333H5.89164C5.89164 8.45833 6.10553 7.67083 6.53331 6.97083C6.96109 6.27083 7.52498 5.71667 8.22498 5.30833V6.41667C8.22498 6.59167 8.27845 6.73264 8.38539 6.83958C8.49234 6.94653 8.63331 7 8.80831 7C8.98331 7 9.12428 6.94653 9.23123 6.83958C9.33817 6.73264 9.39164 6.59167 9.39164 6.41667V4.84167C9.56664 4.78333 9.75136 4.73958 9.94581 4.71042C10.1403 4.68125 10.3444 4.66667 10.5583 4.66667C10.7722 4.66667 10.9764 4.68125 11.1708 4.71042C11.3653 4.73958 11.55 4.78333 11.725 4.84167V6.41667C11.725 6.59167 11.7784 6.73264 11.8854 6.83958C11.9923 6.94653 12.1333 7 12.3083 7C12.4833 7 12.6243 6.94653 12.7312 6.83958C12.8382 6.73264 12.8916 6.59167 12.8916 6.41667V5.30833C13.5916 5.71667 14.1555 6.27083 14.5833 6.97083C15.0111 7.67083 15.225 8.45833 15.225 9.33333H15.5166C15.6916 9.33333 15.8326 9.38681 15.9396 9.49375C16.0465 9.60069 16.1 9.74167 16.1 9.91667C16.1 10.0917 16.0465 10.2326 15.9396 10.3396C15.8326 10.4465 15.6916 10.5 15.5166 10.5H15.225C15.225 11.7833 14.768 12.8819 13.8541 13.7958C12.9403 14.7097 11.8416 15.1667 10.5583 15.1667ZM10.5583 12.8333C11.2 12.8333 11.7493 12.6049 12.2062 12.1479C12.6632 11.691 12.8916 11.1417 12.8916 10.5H8.22498C8.22498 11.1417 8.45345 11.691 8.91039 12.1479C9.36734 12.6049 9.91664 12.8333 10.5583 12.8333ZM19.3083 17.5L19.1333 16.625C19.0166 16.5861 18.9048 16.5424 18.7979 16.4937C18.6909 16.4451 18.5889 16.3722 18.4916 16.275L17.675 16.5667L17.0916 15.5167L17.7333 14.9333V14.2333L17.0916 13.65L17.675 12.6L18.4916 12.8917C18.5694 12.8139 18.6666 12.7458 18.7833 12.6875C18.9 12.6292 19.0166 12.5806 19.1333 12.5417L19.3083 11.6667H20.475L20.65 12.5417C20.7666 12.5806 20.8833 12.6292 21 12.6875C21.1166 12.7458 21.2139 12.8139 21.2916 12.8917L22.1083 12.6L22.6916 13.65L22.05 14.2333V14.9333L22.6916 15.5167L22.1083 16.5667L21.2916 16.275C21.1944 16.3722 21.0923 16.4451 20.9854 16.4937C20.8784 16.5424 20.7666 16.5861 20.65 16.625L20.475 17.5H19.3083ZM19.8916 15.4583C20.125 15.4583 20.3291 15.3708 20.5041 15.1958C20.6791 15.0208 20.7666 14.8167 20.7666 14.5833C20.7666 14.35 20.6791 14.1458 20.5041 13.9708C20.3291 13.7958 20.125 13.7083 19.8916 13.7083C19.6583 13.7083 19.4541 13.7958 19.2791 13.9708C19.1041 14.1458 19.0166 14.35 19.0166 14.5833C19.0166 14.8167 19.1041 15.0208 19.2791 15.1958C19.4541 15.3708 19.6583 15.4583 19.8916 15.4583ZM21.9916 11.6667L21.7583 10.4417C21.5833 10.3833 21.4229 10.3104 21.2771 10.2229C21.1312 10.1354 21 10.0333 20.8833 9.91667L19.6583 10.325L18.8416 8.925L19.8333 8.05C19.7944 7.95278 19.775 7.875 19.775 7.81667V7.35C19.775 7.29167 19.7944 7.21389 19.8333 7.11667L18.8416 6.24167L19.6583 4.84167L20.8833 5.25C21 5.13333 21.1312 5.03125 21.2771 4.94375C21.4229 4.85625 21.5833 4.78333 21.7583 4.725L21.9916 3.5H23.625L23.8583 4.725C24.0333 4.78333 24.1937 4.85625 24.3396 4.94375C24.4854 5.03125 24.6166 5.13333 24.7333 5.25L25.9583 4.84167L26.775 6.24167L25.7833 7.11667C25.8222 7.21389 25.8416 7.29167 25.8416 7.35V7.81667C25.8416 7.875 25.8222 7.95278 25.7833 8.05L26.775 8.925L25.9583 10.325L24.7333 9.91667C24.6166 10.0333 24.4854 10.1354 24.3396 10.2229C24.1937 10.3104 24.0333 10.3833 23.8583 10.4417L23.625 11.6667H21.9916ZM22.8083 9.04167C23.2166 9.04167 23.5618 8.90069 23.8437 8.61875C24.1257 8.33681 24.2666 7.99167 24.2666 7.58333C24.2666 7.175 24.1257 6.82986 23.8437 6.54792C23.5618 6.26597 23.2166 6.125 22.8083 6.125C22.4 6.125 22.0548 6.26597 21.7729 6.54792C21.4909 6.82986 21.35 7.175 21.35 7.58333C21.35 7.99167 21.4909 8.33681 21.7729 8.61875C22.0548 8.90069 22.4 9.04167 22.8083 9.04167Z" fill="#165EF3"/>
</svg>
