<svg width="28" height="28" viewBox="0 0 28 28" fill="none" xmlns="http://www.w3.org/2000/svg">
<path d="M2.33337 8.16671V2.33337H8.16671V4.66671H4.66671V8.16671H2.33337ZM2.33337 25.6667V19.8334H4.66671V23.3334H8.16671V25.6667H2.33337ZM19.8334 25.6667V23.3334H23.3334V19.8334H25.6667V25.6667H19.8334ZM23.3334 8.16671V4.66671H19.8334V2.33337H25.6667V8.16671H23.3334ZM20.4167 20.4167H22.1667V22.1667H20.4167V20.4167ZM20.4167 16.9167H22.1667V18.6667H20.4167V16.9167ZM18.6667 18.6667H20.4167V20.4167H18.6667V18.6667ZM16.9167 20.4167H18.6667V22.1667H16.9167V20.4167ZM15.1667 18.6667H16.9167V20.4167H15.1667V18.6667ZM18.6667 15.1667H20.4167V16.9167H18.6667V15.1667ZM16.9167 16.9167H18.6667V18.6667H16.9167V16.9167ZM15.1667 15.1667H16.9167V16.9167H15.1667V15.1667ZM22.1667 5.83337V12.8334H15.1667V5.83337H22.1667ZM12.8334 15.1667V22.1667H5.83337V15.1667H12.8334ZM12.8334 5.83337V12.8334H5.83337V5.83337H12.8334ZM11.0834 20.4167V16.9167H7.58337V20.4167H11.0834ZM11.0834 11.0834V7.58337H7.58337V11.0834H11.0834ZM20.4167 11.0834V7.58337H16.9167V11.0834H20.4167Z" fill="#165EF3"/>
</svg>
