<svg width="456" height="60" viewBox="0 0 456 60" fill="none" xmlns="http://www.w3.org/2000/svg">
<path d="M74.0645 23.6213L68.6833 7.89893C66.9391 2.51736 63.3327 0 58.5941 0H0V3.75087L8.78868 14.9979H54.1746C54.9429 14.9968 55.6951 15.2791 56.3413 15.8108C56.9875 16.3426 57.5002 17.1014 57.8182 17.9964L62.1896 29.0812C62.2891 29.3693 62.3405 29.6808 62.3405 29.9958C62.3405 30.3108 62.2891 30.6223 62.1896 30.9104L57.8182 41.9924C57.5008 42.8882 56.9882 43.6477 56.342 44.1801C55.6957 44.7124 54.9432 44.9949 54.1746 44.9937H19.3368C19.1828 44.9937 19.0303 44.9548 18.888 44.8793C18.7457 44.8038 18.6165 44.6931 18.5077 44.5536C18.3989 44.4141 18.3126 44.2485 18.2539 44.0663C18.1951 43.884 18.165 43.6888 18.1653 43.4917V34.4935L8.78868 22.4969H5.85985V55.5023C5.85985 56.6952 6.23014 57.8392 6.88925 58.6827C7.54837 59.5261 8.44232 60 9.37445 60H58.5941C63.3327 60 66.9391 57.4826 68.6833 52.1039L74.0601 36.3619C75.3133 32.2636 75.3133 27.7113 74.0601 23.6129" fill="black"/>
<path d="M147.065 0.00137769L137.679 12.0017V42.4222C137.686 42.8239 137.585 43.2165 137.392 43.5342C137.2 43.8519 136.928 44.0756 136.623 44.1677C136.406 44.2249 136.182 44.2127 135.97 44.1322C135.758 44.0516 135.566 43.9053 135.409 43.7062L105.225 5.10363C103.852 3.34422 102.199 1.98187 100.38 1.10845C98.5599 0.235041 96.6149 -0.129118 94.6757 0.0405397C87.4797 0.647551 81.9766 8.5359 81.9766 17.7586V59.9976H84.9097L94.2907 47.9972V17.5739C94.2836 17.1725 94.3846 16.7801 94.577 16.4627C94.7694 16.1453 95.0414 15.9224 95.3472 15.8312C95.5632 15.7735 95.7871 15.7855 95.9987 15.8661C96.2102 15.9466 96.4028 16.0933 96.5589 16.2928L126.743 54.8953C128.117 56.6568 129.77 58.0204 131.592 58.8939C133.413 59.7674 135.36 60.1304 137.301 59.9584C144.497 59.3514 150 51.4659 150 42.2432V0.00137769H147.065Z" fill="black"/>
<path d="M176.638 20.2721C175.984 19.3834 175.113 18.7201 174.128 18.3607C173.168 17.9694 172.155 17.7608 171.132 17.7436C170.558 17.7466 169.986 17.8178 169.426 17.956C168.848 18.0987 168.29 18.3255 167.767 18.6304C167.265 18.9188 166.832 19.3337 166.503 19.8416C166.168 20.3772 165.997 21.0166 166.014 21.667C165.991 22.18 166.086 22.691 166.291 23.1523C166.496 23.6136 166.803 24.0101 167.184 24.3046C168.091 24.9816 169.084 25.5068 170.131 25.8631C171.317 26.2936 172.593 26.7232 173.959 27.1518C175.301 27.5736 176.586 28.1893 177.782 28.9829C178.971 29.7724 179.98 30.8525 180.731 32.14C181.509 33.4679 181.9 35.2435 181.901 37.4669C181.941 39.3797 181.573 41.276 180.827 43.0033C180.146 44.5391 179.155 45.8822 177.93 46.9296C176.665 47.9959 175.224 48.7815 173.688 49.2429C169.963 50.3644 166.02 50.2375 162.36 48.8784C160.368 48.0719 158.544 46.828 157 45.2219L162.407 38.658C163.178 39.7986 164.19 40.7131 165.356 41.3214C167.078 42.2574 169.042 42.5049 170.911 42.0217C171.509 41.8744 172.084 41.6297 172.617 41.2956C173.103 40.9894 173.52 40.5655 173.837 40.0557C174.15 39.53 174.311 38.9111 174.297 38.282C174.314 37.7566 174.214 37.2345 174.007 36.7613C173.799 36.2881 173.49 35.8781 173.106 35.5669C172.191 34.8364 171.179 34.2653 170.107 33.8735C168.906 33.4086 167.605 32.9426 166.206 32.4758C164.841 32.0265 163.531 31.3942 162.305 30.593C161.11 29.8105 160.087 28.7449 159.309 27.4732C158.51 26.1817 158.112 24.4787 158.116 22.3644C158.078 20.4999 158.454 18.6536 159.211 16.9859C159.92 15.4764 160.92 14.1568 162.142 13.1199C163.401 12.0557 164.83 11.2614 166.355 10.7779C167.953 10.2592 169.611 9.99723 171.278 10.0001C173.193 9.99471 175.098 10.3023 176.931 10.9128C178.755 11.5257 180.434 12.572 181.852 13.978L176.638 20.2721Z" fill="black"/>
<path d="M196.802 30.0057C196.783 31.6807 197.038 33.3456 197.556 34.9204C198.031 36.36 198.769 37.6766 199.725 38.7886C200.676 39.8923 201.828 40.762 203.106 41.3405C205.942 42.5601 209.091 42.5601 211.927 41.3405C213.204 40.7605 214.356 39.8911 215.308 38.7886C216.261 37.6749 216.998 36.3587 217.474 34.9204C218.483 31.7472 218.483 28.29 217.474 25.1168C217.002 23.6679 216.265 22.3415 215.308 21.22C214.354 20.1202 213.202 19.2511 211.927 18.668C209.09 17.4524 205.943 17.4524 203.106 18.668C201.83 19.2497 200.678 20.1189 199.725 21.22C198.766 22.3398 198.027 23.6667 197.556 25.1168C197.044 26.6794 196.789 28.33 196.802 29.9914M188.906 29.9914C188.87 27.159 189.342 24.3466 190.295 21.7161C191.168 19.3349 192.488 17.1848 194.17 15.4078C195.866 13.6398 197.872 12.2736 200.066 11.3935C204.894 9.53551 210.15 9.53551 214.978 11.3935C217.171 12.2744 219.177 13.6405 220.874 15.4078C222.555 17.1848 223.876 19.3349 224.748 21.7161C225.699 24.3472 226.17 27.1593 226.135 29.9914C226.174 32.8279 225.705 35.645 224.754 38.281C223.881 40.662 222.56 42.812 220.879 44.5893C219.183 46.3576 217.176 47.7238 214.983 48.6036C210.156 50.4654 204.898 50.4654 200.071 48.6036C197.877 47.7246 195.87 46.3583 194.175 44.5893C192.494 42.812 191.173 40.662 190.3 38.281C189.347 35.6505 188.875 32.8381 188.911 30.0057" fill="black"/>
<path d="M233.137 10H240.736V41.8649H254.821V50H233.137V10Z" fill="black"/>
<path d="M290.913 33.9664C290.933 36.1417 290.62 38.3044 289.987 40.3586C289.4 42.2508 288.462 43.9792 287.235 45.4277C285.95 46.9083 284.395 48.0551 282.679 48.7885C278.593 50.4038 274.144 50.4038 270.058 48.7885C268.341 48.0566 266.786 46.9096 265.502 45.4277C264.274 43.9801 263.335 42.2515 262.748 40.3586C262.114 38.3047 261.8 36.1417 261.822 33.9664V10H269.424V33.6371C269.415 34.7838 269.591 35.9226 269.944 36.9979C270.263 37.9866 270.75 38.8947 271.379 39.6706C272.001 40.4279 272.757 41.0289 273.598 41.4348C274.483 41.8639 275.438 42.0802 276.401 42.0699C277.355 42.0814 278.301 41.865 279.176 41.4348C280.007 41.024 280.755 40.4234 281.371 39.6706C282 38.8941 282.488 37.9862 282.809 36.9979C283.159 35.9218 283.335 34.7835 283.329 33.6371V10H290.931L290.913 33.9664Z" fill="black"/>
<path d="M307.775 17.7974H297.931V10H325.22V17.7974H315.376V50H307.775V17.7974Z" fill="black"/>
<path d="M339.821 10H332.22V50H339.821V10Z" fill="black"/>
<path d="M354.716 30.0129C354.698 31.6886 354.954 33.3542 355.473 34.9294C355.948 36.3694 356.686 37.6865 357.642 38.7989C358.593 39.903 359.745 40.773 361.023 41.3518C363.858 42.5719 367.006 42.5719 369.842 41.3518C371.119 40.773 372.271 39.903 373.222 38.7989C374.177 37.6857 374.915 36.3689 375.391 34.9294C376.4 31.755 376.4 28.2966 375.391 25.1222C374.92 23.672 374.181 22.3448 373.222 21.224C372.269 20.1226 371.118 19.253 369.842 18.6712C367.005 17.4549 363.859 17.4549 361.023 18.6712C359.747 19.253 358.595 20.1226 357.642 21.224C356.683 22.3443 355.944 23.6716 355.473 25.1222C354.96 26.6852 354.704 28.3364 354.716 29.9986M346.823 29.9986C346.787 27.1651 347.259 24.3518 348.212 21.7203C349.085 19.3382 350.405 17.1874 352.087 15.4098C353.782 13.6412 355.788 12.2745 357.98 11.394C362.808 9.53535 368.064 9.53535 372.892 11.394C375.085 12.2744 377.092 13.6411 378.788 15.4098C380.47 17.1872 381.792 19.338 382.665 21.7203C383.616 24.3524 384.087 27.1655 384.052 29.9986C384.087 32.8317 383.616 35.6447 382.665 38.2768C381.792 40.6589 380.47 42.8096 378.788 44.5874C377.093 46.3569 375.086 47.7238 372.892 48.6031C368.065 50.4656 362.807 50.4656 357.98 48.6031C355.787 47.7237 353.781 46.3569 352.087 44.5874C350.406 42.8095 349.085 40.6587 348.212 38.2768C347.259 35.6453 346.787 32.832 346.823 29.9986Z" fill="black"/>
<path d="M391.054 10H401.384L416.051 37.7944H416.147V10H423.749V50H413.809L398.752 21.5242H398.653V50H391.054V10Z" fill="black"/>
<path d="M450.397 20.2717C449.745 19.3825 448.874 18.719 447.89 18.3603C446.929 17.969 445.915 17.7604 444.891 17.7432C444.317 17.7465 443.745 17.8177 443.185 17.9556C442.609 18.0988 442.052 18.3256 441.529 18.6301C441.027 18.9191 440.593 19.3339 440.262 19.8412C439.928 20.377 439.758 21.0165 439.776 21.6665C439.753 22.1792 439.848 22.6899 440.052 23.1511C440.256 23.6123 440.563 24.009 440.944 24.304C441.852 24.981 442.845 25.5061 443.893 25.8624C445.079 26.2929 446.354 26.7224 447.718 27.151C449.061 27.5729 450.347 28.1886 451.544 28.9821C452.733 29.7715 453.742 30.8516 454.493 32.139C455.27 33.4669 455.659 35.2424 455.661 37.4657C455.7 39.378 455.333 41.274 454.589 43.0019C453.907 44.5367 452.916 45.8795 451.692 46.928C450.426 47.9931 448.986 48.7786 447.45 49.2412C443.722 50.365 439.775 50.2381 436.112 48.8767C434.119 48.0703 432.294 46.8265 430.749 45.2203L436.158 38.6567C436.929 39.7973 437.942 40.7118 439.108 41.3201C440.83 42.256 442.793 42.5035 444.663 42.0203C445.26 41.872 445.835 41.6274 446.369 41.2942C446.854 40.9881 447.27 40.5641 447.586 40.0544C447.901 39.5296 448.063 38.9104 448.049 38.2808C448.066 37.755 447.966 37.2327 447.758 36.7594C447.55 36.2861 447.24 35.8763 446.855 35.5658C445.94 34.8342 444.929 34.2631 443.856 33.8725C442.655 33.4075 441.355 32.9417 439.955 32.4748C438.59 32.0251 437.28 31.3929 436.054 30.5921C434.858 29.8097 433.834 28.7442 433.056 27.4724C432.26 26.181 431.863 24.4781 431.865 22.3639C431.837 20.4976 432.224 18.6522 432.991 16.9884C433.698 15.4793 434.696 14.1589 435.914 13.1197C437.175 12.0562 438.604 11.262 440.13 10.7778C441.728 10.259 443.386 9.99703 445.053 10.0001C446.967 9.9947 448.871 10.3023 450.704 10.9127C452.524 11.5271 454.201 12.5733 455.616 13.9778L450.397 20.2717Z" fill="black"/>
</svg>
