<svg width="28" height="28" viewBox="0 0 28 28" fill="none" xmlns="http://www.w3.org/2000/svg">
<path fill-rule="evenodd" clip-rule="evenodd" d="M3.5 23.1V19.8333C3.5 19.1917 3.66528 18.5889 3.99583 18.025C4.32639 17.4611 4.78333 17.0333 5.36667 16.7417C6.35833 16.2361 7.47639 15.8083 8.72083 15.4583C9.96528 15.1083 11.3361 14.9333 12.8333 14.9333C13.4347 14.9333 14.0156 14.9616 14.5762 15.018C13.3594 16.1667 12.6 17.7946 12.6 19.6C12.6 20.8951 12.9908 22.0989 13.6609 23.1H3.5ZM12.8333 13.7667C11.55 13.7667 10.4514 13.3097 9.5375 12.3958C8.62361 11.4819 8.16667 10.3833 8.16667 9.1H7.875C7.7 9.1 7.55903 9.04652 7.45208 8.93958C7.34514 8.83263 7.29167 8.69166 7.29167 8.51666C7.29167 8.34166 7.34514 8.20069 7.45208 8.09375C7.55903 7.9868 7.7 7.93333 7.875 7.93333H8.16667C8.16667 7.05833 8.38056 6.27083 8.80833 5.57083C9.23611 4.87083 9.8 4.31666 10.5 3.90833V5.01666C10.5 5.19166 10.5535 5.33263 10.6604 5.43958C10.7674 5.54652 10.9083 5.6 11.0833 5.6C11.2583 5.6 11.3993 5.54652 11.5062 5.43958C11.6132 5.33263 11.6667 5.19166 11.6667 5.01666V3.44166C11.8417 3.38333 12.0264 3.33958 12.2208 3.31041C12.4153 3.28125 12.6194 3.26666 12.8333 3.26666C13.0472 3.26666 13.2514 3.28125 13.4458 3.31041C13.6403 3.33958 13.825 3.38333 14 3.44166V5.01666C14 5.19166 14.0535 5.33263 14.1604 5.43958C14.2674 5.54652 14.4083 5.6 14.5833 5.6C14.7583 5.6 14.8993 5.54652 15.0062 5.43958C15.1132 5.33263 15.1667 5.19166 15.1667 5.01666V3.90833C15.8667 4.31666 16.4306 4.87083 16.8583 5.57083C17.2861 6.27083 17.5 7.05833 17.5 7.93333H17.7917C17.9667 7.93333 18.1076 7.9868 18.2146 8.09375C18.3215 8.20069 18.375 8.34166 18.375 8.51666C18.375 8.69166 18.3215 8.83263 18.2146 8.93958C18.1076 9.04652 17.9667 9.1 17.7917 9.1H17.5C17.5 10.3833 17.0431 11.4819 16.1292 12.3958C15.2153 13.3097 14.1167 13.7667 12.8333 13.7667ZM12.8333 11.4333C13.475 11.4333 14.0243 11.2049 14.4812 10.7479C14.9382 10.291 15.1667 9.74166 15.1667 9.1H10.5C10.5 9.74166 10.7285 10.291 11.1854 10.7479C11.6424 11.2049 12.1917 11.4333 12.8333 11.4333ZM21.56 23.7939L25.0661 27.3L26.6 25.7661L23.0939 22.26C23.313 21.8765 23.4957 21.4657 23.6417 21.0274C23.7878 20.5891 23.8609 20.1235 23.8609 19.6304C23.8609 18.2609 23.3815 17.0967 22.4228 16.138C21.4641 15.1793 20.3 14.7 18.9304 14.7C17.5609 14.7 16.3967 15.1793 15.438 16.138C14.4793 17.0967 14 18.2609 14 19.6304C14 21 14.4793 22.1641 15.438 23.1228C16.3967 24.0815 17.5609 24.5609 18.9304 24.5609C19.4235 24.5609 19.8891 24.4878 20.3274 24.3417C20.7657 24.1957 21.1765 24.013 21.56 23.7939ZM20.8752 21.5752C20.3457 22.1048 19.6974 22.3696 18.9304 22.3696C18.1635 22.3696 17.5152 22.1048 16.9857 21.5752C16.4561 21.0457 16.1913 20.3974 16.1913 19.6304C16.1913 18.8635 16.4561 18.2152 16.9857 17.6857C17.5152 17.1561 18.1635 16.8913 18.9304 16.8913C19.6974 16.8913 20.3457 17.1561 20.8752 17.6857C21.4048 18.2152 21.6696 18.8635 21.6696 19.6304C21.6696 20.3974 21.4048 21.0457 20.8752 21.5752Z" fill="#165EF3"/>
</svg>
