<svg width="28" height="28" viewBox="0 0 28 28" fill="none" xmlns="http://www.w3.org/2000/svg">
<path d="M12.8333 25.3458V14.6708L3.5 9.27498V18.6375C3.5 19.0653 3.60208 19.4541 3.80625 19.8041C4.01042 20.1541 4.29722 20.4361 4.66667 20.65L12.8333 25.3458ZM15.1667 25.3458L23.3333 20.65C23.7028 20.4361 23.9896 20.1541 24.1938 19.8041C24.3979 19.4541 24.5 19.0653 24.5 18.6375V9.27498L15.1667 14.6708V25.3458ZM19.8042 9.30415L23.2458 7.29165L15.1667 2.65415C14.7972 2.44026 14.4083 2.33331 14 2.33331C13.5917 2.33331 13.2028 2.44026 12.8333 2.65415L10.5292 3.96665L19.8042 9.30415ZM14 12.6583L17.4708 10.675L8.225 5.30831L4.725 7.32081L14 12.6583Z" fill="#165EF3"/>
</svg>
