<svg width="28" height="28" viewBox="0 0 28 28" fill="none" xmlns="http://www.w3.org/2000/svg">
<path d="M10.7916 25.6666L10.3249 21.9333C10.0721 21.8361 9.83393 21.7194 9.61032 21.5833C9.38671 21.4472 9.16796 21.3014 8.95407 21.1458L5.48324 22.6041L2.2749 17.0625L5.27907 14.7875C5.25962 14.6514 5.2499 14.5201 5.2499 14.3937V13.6062C5.2499 13.4798 5.25962 13.3486 5.27907 13.2125L2.2749 10.9375L5.48324 5.39581L8.95407 6.85415C9.16796 6.69859 9.39157 6.55276 9.6249 6.41665C9.85824 6.28054 10.0916 6.16387 10.3249 6.06665L10.7916 2.33331H17.2082L17.6749 6.06665C17.9277 6.16387 18.1659 6.28054 18.3895 6.41665C18.6131 6.55276 18.8318 6.69859 19.0457 6.85415L22.5166 5.39581L25.7249 10.9375L22.7207 13.2125C22.7402 13.3486 22.7499 13.4798 22.7499 13.6062V14.3937C22.7499 14.5201 22.7305 14.6514 22.6916 14.7875L25.6957 17.0625L22.4874 22.6041L19.0457 21.1458C18.8318 21.3014 18.6082 21.4472 18.3749 21.5833C18.1416 21.7194 17.9082 21.8361 17.6749 21.9333L17.2082 25.6666H10.7916ZM14.0582 18.0833C15.186 18.0833 16.1485 17.6847 16.9457 16.8875C17.743 16.0903 18.1416 15.1278 18.1416 14C18.1416 12.8722 17.743 11.9097 16.9457 11.1125C16.1485 10.3153 15.186 9.91665 14.0582 9.91665C12.911 9.91665 11.9437 10.3153 11.1562 11.1125C10.3687 11.9097 9.9749 12.8722 9.9749 14C9.9749 15.1278 10.3687 16.0903 11.1562 16.8875C11.9437 17.6847 12.911 18.0833 14.0582 18.0833Z" fill="#165EF3"/>
</svg>
