<svg width="28" height="28" viewBox="0 0 28 28" fill="none" xmlns="http://www.w3.org/2000/svg">
<path d="M4.63749 24.5V21H8.25416L5.27916 11.2583C4.75416 10.9667 4.32152 10.5389 3.98124 9.97499C3.64096 9.4111 3.47083 8.80832 3.47083 8.16665C3.47083 7.19443 3.8111 6.36804 4.49166 5.68749C5.17221 5.00693 5.9986 4.66665 6.97083 4.66665C7.72916 4.66665 8.40485 4.8854 8.99791 5.3229C9.59096 5.7604 10.0042 6.31943 10.2375 6.99999H13.9708V5.83332C13.9708 5.50276 14.0826 5.22568 14.3062 5.00207C14.5299 4.77846 14.8069 4.66665 15.1375 4.66665C15.3125 4.66665 15.4826 4.70554 15.6479 4.78332C15.8132 4.8611 15.9542 4.97776 16.0708 5.13332L18.0542 3.26665C18.2292 3.09165 18.4382 2.97985 18.6812 2.93124C18.9243 2.88263 19.1625 2.91665 19.3958 3.03332L23.9458 5.13332C24.1792 5.24999 24.3396 5.42013 24.4271 5.64374C24.5146 5.86735 24.5097 6.0861 24.4125 6.29999C24.2958 6.53332 24.1257 6.68401 23.9021 6.75207C23.6785 6.82012 23.4597 6.80554 23.2458 6.70832L19.0458 4.78332L16.3042 7.34999V8.98332L19.0458 11.4917L23.2458 9.56665C23.4597 9.46943 23.6833 9.45971 23.9167 9.53749C24.15 9.61526 24.3153 9.7611 24.4125 9.97499C24.5292 10.2083 24.5389 10.4319 24.4417 10.6458C24.3444 10.8597 24.1792 11.025 23.9458 11.1417L19.3958 13.3C19.1625 13.4167 18.9243 13.4507 18.6812 13.4021C18.4382 13.3535 18.2292 13.2417 18.0542 13.0667L16.0708 11.2C15.9542 11.3167 15.8132 11.4236 15.6479 11.5208C15.4826 11.618 15.3125 11.6667 15.1375 11.6667C14.8069 11.6667 14.5299 11.5548 14.3062 11.3312C14.0826 11.1076 13.9708 10.8305 13.9708 10.5V9.33332H10.2375C10.1792 9.48887 10.116 9.63471 10.0479 9.77082C9.97985 9.90693 9.88749 10.0528 9.77083 10.2083L15.6042 21H19.8042V24.5H4.63749ZM6.97083 9.33332C7.30138 9.33332 7.57846 9.22151 7.80208 8.9979C8.02569 8.77429 8.13749 8.49721 8.13749 8.16665C8.13749 7.8361 8.02569 7.55901 7.80208 7.3354C7.57846 7.11179 7.30138 6.99999 6.97083 6.99999C6.64027 6.99999 6.36319 7.11179 6.13958 7.3354C5.91596 7.55901 5.80416 7.8361 5.80416 8.16665C5.80416 8.49721 5.91596 8.77429 6.13958 8.9979C6.36319 9.22151 6.64027 9.33332 6.97083 9.33332ZM10.6458 21H12.9208L7.90416 11.6667H7.78749L10.6458 21Z" fill="#165EF3"/>
</svg>
