<svg width="28" height="28" viewBox="0 0 28 28" fill="none" xmlns="http://www.w3.org/2000/svg">
<path d="M24.1473 25.6667L20.8101 22.3566C20.4845 22.5556 20.1363 22.7048 19.7655 22.8043C19.3947 22.9038 19.0104 22.9535 18.6124 22.9535C17.4186 22.9535 16.3967 22.5285 15.5466 21.6783C14.6964 20.8282 14.2714 19.8062 14.2714 18.6124C14.2714 17.4186 14.6964 16.3967 15.5466 15.5466C16.3967 14.6964 17.4186 14.2714 18.6124 14.2714C19.8062 14.2714 20.8282 14.6964 21.6783 15.5466C22.5285 16.3967 22.9535 17.4186 22.9535 18.6124C22.9535 19.0285 22.8993 19.4219 22.7907 19.7927C22.6822 20.1635 22.5285 20.5117 22.3295 20.8372L25.6667 24.1473L24.1473 25.6667ZM6.67446 22.9535C5.48066 22.9535 4.4587 22.5285 3.60857 21.6783C2.75844 20.8282 2.33337 19.8062 2.33337 18.6124C2.33337 17.4186 2.75844 16.3967 3.60857 15.5466C4.4587 14.6964 5.48066 14.2714 6.67446 14.2714C7.86826 14.2714 8.89022 14.6964 9.74035 15.5466C10.5905 16.3967 11.0155 17.4186 11.0155 18.6124C11.0155 19.8062 10.5905 20.8282 9.74035 21.6783C8.89022 22.5285 7.86826 22.9535 6.67446 22.9535ZM18.6124 20.783C19.2093 20.783 19.7203 20.5705 20.1454 20.1454C20.5705 19.7203 20.783 19.2093 20.783 18.6124C20.783 18.0155 20.5705 17.5046 20.1454 17.0795C19.7203 16.6544 19.2093 16.4419 18.6124 16.4419C18.0155 16.4419 17.5046 16.6544 17.0795 17.0795C16.6544 17.5046 16.4419 18.0155 16.4419 18.6124C16.4419 19.2093 16.6544 19.7203 17.0795 20.1454C17.5046 20.5705 18.0155 20.783 18.6124 20.783ZM6.67446 11.0155C5.48066 11.0155 4.4587 10.5905 3.60857 9.74035C2.75844 8.89022 2.33337 7.86826 2.33337 6.67446C2.33337 5.48066 2.75844 4.4587 3.60857 3.60857C4.4587 2.75844 5.48066 2.33337 6.67446 2.33337C7.86826 2.33337 8.89022 2.75844 9.74035 3.60857C10.5905 4.4587 11.0155 5.48066 11.0155 6.67446C11.0155 7.86826 10.5905 8.89022 9.74035 9.74035C8.89022 10.5905 7.86826 11.0155 6.67446 11.0155ZM18.6124 11.0155C17.4186 11.0155 16.3967 10.5905 15.5466 9.74035C14.6964 8.89022 14.2714 7.86826 14.2714 6.67446C14.2714 5.48066 14.6964 4.4587 15.5466 3.60857C16.3967 2.75844 17.4186 2.33337 18.6124 2.33337C19.8062 2.33337 20.8282 2.75844 21.6783 3.60857C22.5285 4.4587 22.9535 5.48066 22.9535 6.67446C22.9535 7.86826 22.5285 8.89022 21.6783 9.74035C20.8282 10.5905 19.8062 11.0155 18.6124 11.0155Z" fill="#165EF3"/>
</svg>
