<svg width="40" height="40" viewBox="0 0 40 40" fill="none" xmlns="http://www.w3.org/2000/svg">
<path d="M24.8148 18.9744C24.8148 16.4554 23.4988 14.3467 21.2039 13.7887V13.2308C21.2039 12.5497 20.6663 12 20.0003 12C19.3343 12 18.7967 12.5497 18.7967 13.2308V13.7887C16.4938 14.3467 15.1859 16.4472 15.1859 18.9744V23.0769L13.5811 24.7179V25.5385H26.4196V24.7179L24.8148 23.0769V18.9744ZM20.0003 28C20.1127 28 20.217 27.9918 20.3213 27.9672C20.8428 27.8523 21.2681 27.4913 21.4767 26.999C21.557 26.8021 21.5971 26.5887 21.5971 26.359H18.3875C18.3955 27.2615 19.1096 28 20.0003 28Z" fill="#7C848C"/>
</svg>
